<svg xmlns="http://www.w3.org/2000/svg" viewBox="0 0 256 256" role="img" aria-label="MyFitnessBuddy favicon">
  <defs>
    <linearGradient id="blue" x1="48" y1="24" x2="208" y2="232" gradientUnits="userSpaceOnUse">
      <stop offset="0" stop-color="#67d6ee"/>
      <stop offset="1" stop-color="#2563eb"/>
    </linearGradient>
  </defs>
  <rect width="256" height="256" rx="54" fill="#ffffff"/>
  <path d="M50 142c14-50 53-86 101-91 20-2 39 1 56 10" fill="none" stroke="url(#blue)" stroke-width="12" stroke-linecap="round"/>
  <path d="M204 87c12 29 10 63-7 91-20 35-57 56-97 55" fill="none" stroke="url(#blue)" stroke-width="12" stroke-linecap="round"/>
  <path d="M22 147h26l10-42 19 82 15-45h22" fill="none" stroke="url(#blue)" stroke-width="12" stroke-linecap="round" stroke-linejoin="round"/>
  <circle cx="153" cy="75" r="17" fill="url(#blue)"/>
  <path d="M148 72c5 8 15 10 24 4" fill="none" stroke="#ffffff" stroke-width="5" stroke-linecap="round"/>
  <path d="M129 107c10-15 24-18 43-8l19 10" fill="none" stroke="url(#blue)" stroke-width="15" stroke-linecap="round" stroke-linejoin="round"/>
  <path d="M156 113l-26 33-32-2" fill="none" stroke="url(#blue)" stroke-width="17" stroke-linecap="round" stroke-linejoin="round"/>
  <path d="M147 143l23 25 2 38" fill="none" stroke="url(#blue)" stroke-width="17" stroke-linecap="round" stroke-linejoin="round"/>
  <path d="M188 116c18-15 29-31 32-50" fill="none" stroke="url(#blue)" stroke-width="11" stroke-linecap="round"/>
  <path d="M211 73l12-19 13 18" fill="none" stroke="url(#blue)" stroke-width="10" stroke-linecap="round" stroke-linejoin="round"/>
  <circle cx="224" cy="48" r="8" fill="url(#blue)"/>
  <path d="M212 28v-9M226 29l5-8M240 42l9-3" fill="none" stroke="#67d6ee" stroke-width="5" stroke-linecap="round"/>
</svg>
